<svg width="279" height="304" viewBox="0 0 279 304" fill="none" xmlns="http://www.w3.org/2000/svg">
<rect width="279" height="303.46" rx="49.6849" fill="#E27B7C"/>
<g filter="url(#filter0_d_3_105)">
<path d="M86.5953 158.06V141.878H89.743V158.06H86.5953ZM96.4191 158.06V146.024H98.8575V151.188H98.6358C98.6358 149.962 98.7984 148.942 99.1235 148.129C99.4486 147.302 99.9289 146.681 100.564 146.267C101.215 145.854 102.02 145.647 102.981 145.647H103.114C104.547 145.647 105.633 146.112 106.372 147.043C107.111 147.959 107.481 149.334 107.481 151.166V158.06H104.399V150.9C104.399 150.161 104.185 149.563 103.756 149.105C103.343 148.647 102.766 148.418 102.027 148.418C101.274 148.418 100.66 148.654 100.188 149.127C99.7294 149.585 99.5003 150.206 99.5003 150.989V158.06H96.4191ZM116.004 158.06L112.236 146.024H115.406L119.019 158.06H116.004ZM116.913 158.06V155.533H120.172V158.06H116.913ZM118.132 158.06L121.236 146.024H124.206L120.948 158.06H118.132ZM134.941 158.481C133.877 158.481 132.939 158.312 132.126 157.972C131.313 157.632 130.626 157.174 130.064 156.597C129.503 156.006 129.074 155.341 128.779 154.602C128.498 153.863 128.357 153.095 128.357 152.297V151.831C128.357 151.004 128.505 150.221 128.801 149.482C129.111 148.728 129.547 148.063 130.109 147.487C130.685 146.895 131.38 146.437 132.192 146.112C133.005 145.772 133.921 145.602 134.941 145.602C135.961 145.602 136.877 145.772 137.69 146.112C138.503 146.437 139.19 146.895 139.751 147.487C140.328 148.063 140.764 148.728 141.059 149.482C141.355 150.221 141.503 151.004 141.503 151.831V152.297C141.503 153.095 141.355 153.863 141.059 154.602C140.778 155.341 140.357 156.006 139.796 156.597C139.234 157.174 138.547 157.632 137.734 157.972C136.921 158.312 135.99 158.481 134.941 158.481ZM134.941 155.844C135.695 155.844 136.33 155.681 136.847 155.356C137.365 155.016 137.756 154.565 138.022 154.004C138.288 153.427 138.421 152.777 138.421 152.053C138.421 151.314 138.281 150.664 138 150.102C137.734 149.526 137.335 149.075 136.803 148.75C136.286 148.41 135.665 148.24 134.941 148.24C134.217 148.24 133.589 148.41 133.057 148.75C132.54 149.075 132.141 149.526 131.86 150.102C131.579 150.664 131.439 151.314 131.439 152.053C131.439 152.777 131.572 153.427 131.838 154.004C132.118 154.565 132.517 155.016 133.035 155.356C133.552 155.681 134.187 155.844 134.941 155.844ZM147.659 158.06V146.024H150.74V158.06H147.659ZM145.974 148.329V146.024H150.74V148.329H145.974ZM148.789 144.583C148.183 144.583 147.732 144.428 147.437 144.117C147.156 143.792 147.016 143.393 147.016 142.92C147.016 142.418 147.156 142.011 147.437 141.701C147.732 141.391 148.183 141.235 148.789 141.235C149.395 141.235 149.838 141.391 150.119 141.701C150.4 142.011 150.54 142.418 150.54 142.92C150.54 143.393 150.4 143.792 150.119 144.117C149.838 144.428 149.395 144.583 148.789 144.583ZM162.515 158.481C161.466 158.481 160.557 158.304 159.788 157.949C159.035 157.595 158.399 157.122 157.882 156.531C157.38 155.94 157.003 155.275 156.751 154.536C156.5 153.797 156.375 153.043 156.375 152.275V151.853C156.375 151.041 156.5 150.265 156.751 149.526C157.017 148.772 157.409 148.107 157.926 147.531C158.444 146.94 159.079 146.474 159.833 146.134C160.601 145.78 161.488 145.602 162.493 145.602C163.542 145.602 164.48 145.809 165.308 146.223C166.136 146.622 166.793 147.184 167.281 147.908C167.783 148.632 168.064 149.474 168.123 150.435H165.131C165.057 149.814 164.791 149.297 164.333 148.883C163.889 148.469 163.276 148.262 162.493 148.262C161.813 148.262 161.244 148.425 160.786 148.75C160.343 149.075 160.01 149.526 159.788 150.102C159.567 150.664 159.456 151.314 159.456 152.053C159.456 152.762 159.559 153.405 159.766 153.982C159.988 154.558 160.32 155.009 160.764 155.334C161.222 155.659 161.806 155.821 162.515 155.821C163.047 155.821 163.505 155.725 163.889 155.533C164.273 155.341 164.576 155.075 164.798 154.735C165.035 154.395 165.182 154.011 165.241 153.583H168.234C168.175 154.558 167.887 155.415 167.369 156.154C166.867 156.878 166.195 157.447 165.352 157.861C164.525 158.275 163.579 158.481 162.515 158.481ZM178.971 158.481C177.936 158.481 177.027 158.304 176.244 157.949C175.476 157.595 174.833 157.122 174.316 156.531C173.813 155.925 173.429 155.252 173.163 154.514C172.912 153.775 172.786 153.021 172.786 152.253V151.831C172.786 151.033 172.912 150.265 173.163 149.526C173.429 148.772 173.813 148.107 174.316 147.531C174.833 146.94 175.468 146.474 176.222 146.134C176.976 145.78 177.848 145.602 178.838 145.602C180.138 145.602 181.224 145.891 182.096 146.467C182.983 147.028 183.648 147.775 184.091 148.706C184.535 149.622 184.756 150.612 184.756 151.676V152.785H174.094V150.9H182.828L181.875 151.831C181.875 151.063 181.764 150.405 181.542 149.858C181.32 149.312 180.981 148.89 180.522 148.595C180.079 148.299 179.517 148.152 178.838 148.152C178.158 148.152 177.582 148.307 177.109 148.617C176.636 148.927 176.274 149.378 176.022 149.969C175.786 150.546 175.668 151.24 175.668 152.053C175.668 152.807 175.786 153.479 176.022 154.07C176.259 154.647 176.621 155.105 177.109 155.445C177.596 155.77 178.217 155.932 178.971 155.932C179.724 155.932 180.338 155.784 180.811 155.489C181.283 155.179 181.586 154.802 181.719 154.358H184.557C184.379 155.186 184.04 155.91 183.537 156.531C183.035 157.151 182.392 157.632 181.609 157.972C180.84 158.312 179.961 158.481 178.971 158.481Z" fill="black"/>
<path d="M198.366 158.06C197.967 158.06 197.671 157.949 197.479 157.728C197.302 157.506 197.242 157.196 197.302 156.797L199.452 143.319C199.511 142.964 199.636 142.706 199.829 142.543C200.035 142.366 200.316 142.277 200.671 142.277C201.055 142.277 201.336 142.388 201.513 142.61C201.691 142.831 201.75 143.134 201.691 143.519L199.718 156.087H206.39C206.73 156.087 206.989 156.161 207.166 156.309C207.358 156.442 207.454 156.634 207.454 156.885C207.454 157.27 207.343 157.565 207.122 157.772C206.915 157.964 206.634 158.06 206.279 158.06H198.366ZM212.947 162.206C212.667 162.206 212.445 162.139 212.282 162.006C212.135 161.873 212.053 161.696 212.038 161.474C212.038 161.252 212.105 161.023 212.238 160.787L214.344 157.307L214.189 158.26L211.573 148.639C211.499 148.344 211.484 148.078 211.529 147.841C211.588 147.605 211.713 147.42 211.905 147.287C212.098 147.154 212.327 147.088 212.593 147.088C212.918 147.088 213.154 147.161 213.302 147.309C213.465 147.457 213.59 147.723 213.679 148.107L215.696 156.243H215.031L219.841 147.908C220.004 147.612 220.174 147.405 220.351 147.287C220.528 147.154 220.765 147.088 221.061 147.088C221.341 147.088 221.563 147.161 221.726 147.309C221.903 147.442 221.999 147.62 222.014 147.841C222.028 148.048 221.962 148.285 221.814 148.551L214.167 161.408C214.004 161.688 213.834 161.888 213.657 162.006C213.479 162.139 213.243 162.206 212.947 162.206ZM225.598 158.149C225.17 158.149 224.822 158.016 224.556 157.75C224.305 157.484 224.18 157.144 224.18 156.73C224.18 156.316 224.305 155.984 224.556 155.733C224.822 155.467 225.17 155.334 225.598 155.334C226.042 155.334 226.381 155.467 226.618 155.733C226.869 155.984 226.995 156.316 226.995 156.73C226.995 157.144 226.869 157.484 226.618 157.75C226.381 158.016 226.042 158.149 225.598 158.149Z" fill="white"/>
<g clip-path="url(#clip0_3_105)">
<path d="M57.4812 127.709L42.4483 153.747C41.95 154.61 41.8149 155.636 42.0729 156.598C42.3309 157.561 42.9607 158.382 43.8239 158.88L69.8616 173.913" stroke="black" stroke-width="1.11473" stroke-linecap="round" stroke-linejoin="round"/>
<path d="M56.2797 144.823C56.4041 144.608 56.6088 144.45 56.849 144.386L61.9828 143.01C62.1021 142.978 62.2266 142.97 62.3492 142.986C62.4717 143.002 62.5899 143.042 62.6969 143.104C62.8039 143.165 62.8977 143.248 62.9729 143.346C63.048 143.444 63.1031 143.556 63.135 143.675L65.3992 152.125C65.431 152.245 65.4861 152.357 65.5613 152.455C65.6365 152.553 65.7302 152.635 65.8373 152.697C65.9443 152.759 66.0625 152.799 66.185 152.815C66.3075 152.831 66.432 152.823 66.5514 152.791L77.5686 149.839C77.7481 149.79 77.9379 149.796 78.114 149.856C78.2901 149.915 78.4446 150.026 78.5579 150.173C78.6711 150.321 78.7381 150.498 78.7504 150.684C78.7626 150.869 78.7196 151.054 78.6267 151.215L71.3047 163.897C71.0555 164.329 70.6451 164.644 70.1637 164.773C69.6823 164.902 69.1694 164.834 68.7378 164.585L52.4642 155.19C52.0326 154.941 51.7177 154.53 51.5887 154.049C51.4597 153.567 51.5272 153.054 51.7764 152.623L56.2797 144.823Z" stroke="white" stroke-width="1.11473" stroke-linecap="round" stroke-linejoin="round"/>
</g>
</g>
<path d="M150.372 182.458C150.239 182.458 150.099 182.435 149.951 182.389C149.804 182.338 149.628 182.257 149.424 182.145C149.22 182.032 149.065 181.956 148.958 181.915C148.851 181.874 148.756 181.854 148.675 181.854C148.568 181.854 148.469 181.877 148.377 181.923C148.285 181.969 148.201 182.055 148.125 182.183C148.079 182.254 148.025 182.295 147.964 182.305C147.903 182.315 147.847 182.305 147.796 182.275C147.745 182.239 147.709 182.19 147.689 182.129C147.674 182.068 147.686 182.002 147.727 181.931C147.829 181.737 147.959 181.594 148.117 181.502C148.275 181.406 148.448 181.357 148.637 181.357C148.764 181.357 148.899 181.38 149.042 181.426C149.19 181.467 149.363 181.543 149.562 181.655C149.745 181.752 149.895 181.826 150.013 181.877C150.13 181.928 150.234 181.953 150.326 181.953C150.433 181.953 150.532 181.931 150.624 181.885C150.721 181.839 150.808 181.752 150.884 181.625C150.925 181.553 150.976 181.515 151.037 181.51C151.103 181.5 151.162 181.513 151.213 181.548C151.264 181.579 151.297 181.625 151.312 181.686C151.332 181.747 151.322 181.811 151.281 181.877C151.174 182.071 151.042 182.216 150.884 182.313C150.726 182.41 150.555 182.458 150.372 182.458ZM155.2 184.17C154.96 184.17 154.728 184.15 154.504 184.109C154.28 184.073 154.068 184.017 153.87 183.941C153.671 183.864 153.493 183.77 153.335 183.658C153.268 183.612 153.22 183.556 153.189 183.49C153.164 183.424 153.156 183.36 153.166 183.299C153.182 183.233 153.21 183.176 153.251 183.131C153.296 183.085 153.35 183.057 153.411 183.047C153.472 183.036 153.538 183.057 153.61 183.108C153.844 183.266 154.089 183.38 154.344 183.452C154.604 183.523 154.889 183.559 155.2 183.559C155.648 183.559 155.977 183.477 156.186 183.314C156.4 183.151 156.507 182.937 156.507 182.672C156.507 182.453 156.43 182.282 156.278 182.16C156.125 182.032 155.867 181.933 155.505 181.862L154.695 181.694C154.216 181.592 153.857 181.423 153.617 181.189C153.383 180.955 153.266 180.641 153.266 180.249C153.266 180.009 153.314 179.793 153.411 179.599C153.508 179.4 153.645 179.23 153.824 179.087C154.002 178.944 154.211 178.835 154.451 178.758C154.695 178.682 154.965 178.644 155.261 178.644C155.577 178.644 155.872 178.687 156.148 178.774C156.428 178.86 156.68 178.988 156.904 179.156C156.965 179.202 157.006 179.258 157.027 179.324C157.047 179.385 157.05 179.446 157.034 179.507C157.024 179.569 156.996 179.62 156.95 179.66C156.909 179.701 156.856 179.724 156.79 179.729C156.729 179.734 156.66 179.711 156.583 179.66C156.379 179.518 156.171 179.416 155.956 179.355C155.742 179.288 155.508 179.255 155.253 179.255C154.993 179.255 154.767 179.296 154.573 179.377C154.384 179.459 154.237 179.574 154.13 179.721C154.028 179.864 153.977 180.032 153.977 180.226C153.977 180.46 154.048 180.644 154.191 180.776C154.333 180.909 154.573 181.011 154.909 181.082L155.712 181.243C156.221 181.35 156.599 181.515 156.843 181.739C157.093 181.959 157.218 182.254 157.218 182.626C157.218 182.861 157.169 183.072 157.072 183.261C156.981 183.449 156.848 183.612 156.675 183.75C156.502 183.882 156.29 183.987 156.041 184.063C155.791 184.135 155.511 184.17 155.2 184.17ZM159.42 184.155C159.313 184.155 159.229 184.124 159.168 184.063C159.107 184.002 159.076 183.913 159.076 183.796V180.677C159.076 180.56 159.107 180.473 159.168 180.417C159.229 180.356 159.313 180.325 159.42 180.325C159.527 180.325 159.609 180.356 159.665 180.417C159.726 180.473 159.757 180.56 159.757 180.677V181.327L159.673 181.189C159.769 180.909 159.925 180.692 160.139 180.539C160.358 180.386 160.618 180.31 160.919 180.31C161.235 180.31 161.489 180.386 161.683 180.539C161.877 180.687 162.007 180.914 162.073 181.22H161.966C162.058 180.939 162.221 180.718 162.455 180.555C162.695 180.392 162.972 180.31 163.288 180.31C163.568 180.31 163.798 180.366 163.976 180.478C164.16 180.585 164.297 180.748 164.389 180.967C164.481 181.181 164.526 181.457 164.526 181.793V183.796C164.526 183.913 164.496 184.002 164.435 184.063C164.374 184.124 164.29 184.155 164.183 184.155C164.07 184.155 163.984 184.124 163.923 184.063C163.861 184.002 163.831 183.913 163.831 183.796V181.824C163.831 181.497 163.775 181.258 163.663 181.105C163.551 180.952 163.362 180.876 163.097 180.876C162.807 180.876 162.575 180.978 162.401 181.181C162.233 181.38 162.149 181.655 162.149 182.007V183.796C162.149 183.913 162.119 184.002 162.058 184.063C162.001 184.124 161.917 184.155 161.805 184.155C161.693 184.155 161.607 184.124 161.545 184.063C161.484 184.002 161.454 183.913 161.454 183.796V181.824C161.454 181.497 161.398 181.258 161.285 181.105C161.173 180.952 160.985 180.876 160.72 180.876C160.429 180.876 160.198 180.978 160.024 181.181C159.856 181.38 159.772 181.655 159.772 182.007V183.796C159.772 184.035 159.655 184.155 159.42 184.155ZM167.823 184.17C167.569 184.17 167.337 184.119 167.128 184.017C166.924 183.915 166.764 183.778 166.646 183.605C166.534 183.431 166.478 183.238 166.478 183.024C166.478 182.748 166.547 182.532 166.685 182.374C166.822 182.216 167.054 182.104 167.38 182.038C167.706 181.966 168.145 181.931 168.695 181.931H169.054V182.374H168.71C168.318 182.374 168.007 182.392 167.778 182.427C167.553 182.463 167.395 182.527 167.304 182.618C167.212 182.705 167.166 182.827 167.166 182.985C167.166 183.184 167.235 183.347 167.372 183.475C167.515 183.602 167.709 183.666 167.953 183.666C168.147 183.666 168.318 183.62 168.466 183.528C168.613 183.431 168.731 183.304 168.817 183.146C168.904 182.983 168.947 182.797 168.947 182.588V181.709C168.947 181.408 168.886 181.192 168.764 181.059C168.641 180.922 168.435 180.853 168.145 180.853C167.976 180.853 167.803 180.876 167.625 180.922C167.446 180.967 167.26 181.039 167.067 181.136C166.99 181.171 166.924 181.184 166.868 181.174C166.812 181.159 166.766 181.128 166.73 181.082C166.7 181.031 166.682 180.978 166.677 180.922C166.677 180.86 166.69 180.802 166.715 180.746C166.746 180.69 166.797 180.649 166.868 180.623C167.092 180.511 167.314 180.432 167.533 180.386C167.757 180.336 167.966 180.31 168.16 180.31C168.491 180.31 168.764 180.364 168.978 180.471C169.192 180.572 169.352 180.733 169.459 180.952C169.566 181.166 169.62 181.441 169.62 181.778V183.796C169.62 183.913 169.592 184.002 169.536 184.063C169.48 184.124 169.398 184.155 169.291 184.155C169.189 184.155 169.108 184.124 169.046 184.063C168.99 184.002 168.962 183.913 168.962 183.796V183.253H169.031C168.99 183.441 168.914 183.605 168.802 183.742C168.69 183.88 168.55 183.987 168.381 184.063C168.218 184.135 168.032 184.17 167.823 184.17ZM172.067 184.155C171.95 184.155 171.861 184.124 171.8 184.063C171.739 184.002 171.708 183.913 171.708 183.796V180.677C171.708 180.56 171.739 180.473 171.8 180.417C171.861 180.356 171.945 180.325 172.052 180.325C172.159 180.325 172.241 180.356 172.297 180.417C172.358 180.473 172.388 180.56 172.388 180.677V181.266H172.312C172.393 180.96 172.546 180.728 172.771 180.57C172.995 180.412 173.278 180.323 173.619 180.302C173.701 180.297 173.767 180.318 173.818 180.364C173.869 180.404 173.897 180.476 173.902 180.578C173.907 180.674 173.884 180.753 173.833 180.815C173.782 180.871 173.703 180.904 173.596 180.914L173.459 180.922C173.122 180.957 172.862 181.067 172.679 181.25C172.501 181.434 172.411 181.686 172.411 182.007V183.796C172.411 183.913 172.381 184.002 172.32 184.063C172.264 184.124 172.179 184.155 172.067 184.155ZM177.247 184.17C176.946 184.17 176.694 184.117 176.49 184.01C176.291 183.903 176.141 183.747 176.039 183.543C175.942 183.34 175.894 183.09 175.894 182.794V180.914H175.404C175.313 180.914 175.241 180.891 175.19 180.845C175.14 180.794 175.114 180.728 175.114 180.646C175.114 180.56 175.14 180.493 175.19 180.448C175.241 180.402 175.313 180.379 175.404 180.379H175.894V179.546C175.894 179.428 175.924 179.342 175.985 179.286C176.047 179.225 176.133 179.194 176.245 179.194C176.357 179.194 176.442 179.225 176.498 179.286C176.559 179.342 176.589 179.428 176.589 179.546V180.379H177.514C177.611 180.379 177.685 180.402 177.736 180.448C177.787 180.493 177.812 180.56 177.812 180.646C177.812 180.728 177.787 180.794 177.736 180.845C177.685 180.891 177.611 180.914 177.514 180.914H176.589V182.733C176.589 183.013 176.648 183.225 176.765 183.368C176.882 183.51 177.076 183.582 177.346 183.582C177.443 183.582 177.524 183.574 177.591 183.559C177.657 183.538 177.715 183.528 177.766 183.528C177.812 183.523 177.851 183.538 177.881 183.574C177.917 183.61 177.935 183.676 177.935 183.773C177.935 183.844 177.922 183.91 177.896 183.971C177.876 184.027 177.833 184.066 177.766 184.086C177.705 184.106 177.624 184.124 177.522 184.14C177.42 184.16 177.328 184.17 177.247 184.17ZM179.884 184.132C179.752 184.132 179.642 184.089 179.555 184.002C179.469 183.915 179.426 183.806 179.426 183.673C179.426 183.541 179.469 183.434 179.555 183.352C179.642 183.271 179.752 183.23 179.884 183.23C180.027 183.23 180.136 183.271 180.213 183.352C180.294 183.434 180.335 183.541 180.335 183.673C180.335 183.806 180.294 183.915 180.213 184.002C180.136 184.089 180.027 184.132 179.884 184.132ZM187.17 184.17C186.93 184.17 186.698 184.15 186.474 184.109C186.25 184.073 186.039 184.017 185.84 183.941C185.641 183.864 185.463 183.77 185.305 183.658C185.238 183.612 185.19 183.556 185.159 183.49C185.134 183.424 185.126 183.36 185.137 183.299C185.152 183.233 185.18 183.176 185.221 183.131C185.266 183.085 185.32 183.057 185.381 183.047C185.442 183.036 185.509 183.057 185.58 183.108C185.814 183.266 186.059 183.38 186.314 183.452C186.574 183.523 186.859 183.559 187.17 183.559C187.618 183.559 187.947 183.477 188.156 183.314C188.37 183.151 188.477 182.937 188.477 182.672C188.477 182.453 188.4 182.282 188.248 182.16C188.095 182.032 187.837 181.933 187.476 181.862L186.665 181.694C186.186 181.592 185.827 181.423 185.588 181.189C185.353 180.955 185.236 180.641 185.236 180.249C185.236 180.009 185.284 179.793 185.381 179.599C185.478 179.4 185.616 179.23 185.794 179.087C185.972 178.944 186.181 178.835 186.421 178.758C186.665 178.682 186.935 178.644 187.231 178.644C187.547 178.644 187.842 178.687 188.118 178.774C188.398 178.86 188.65 178.988 188.874 179.156C188.936 179.202 188.976 179.258 188.997 179.324C189.017 179.385 189.02 179.446 189.004 179.507C188.994 179.569 188.966 179.62 188.92 179.66C188.879 179.701 188.826 179.724 188.76 179.729C188.699 179.734 188.63 179.711 188.553 179.66C188.349 179.518 188.141 179.416 187.927 179.355C187.713 179.288 187.478 179.255 187.223 179.255C186.963 179.255 186.737 179.296 186.543 179.377C186.354 179.459 186.207 179.574 186.1 179.721C185.998 179.864 185.947 180.032 185.947 180.226C185.947 180.46 186.018 180.644 186.161 180.776C186.303 180.909 186.543 181.011 186.879 181.082L187.682 181.243C188.192 181.35 188.569 181.515 188.813 181.739C189.063 181.959 189.188 182.254 189.188 182.626C189.188 182.861 189.139 183.072 189.043 183.261C188.951 183.449 188.818 183.612 188.645 183.75C188.472 183.882 188.26 183.987 188.011 184.063C187.761 184.135 187.481 184.17 187.17 184.17ZM191.375 184.14C191.268 184.14 191.184 184.106 191.123 184.04C191.062 183.974 191.031 183.882 191.031 183.765V180.715C191.031 180.593 191.062 180.501 191.123 180.44C191.184 180.374 191.268 180.341 191.375 180.341C191.487 180.341 191.574 180.374 191.635 180.44C191.696 180.501 191.727 180.593 191.727 180.715V183.765C191.727 183.882 191.696 183.974 191.635 184.04C191.579 184.106 191.492 184.14 191.375 184.14ZM191.375 179.515C191.238 179.515 191.128 179.479 191.046 179.408C190.97 179.332 190.932 179.232 190.932 179.11C190.932 178.977 190.97 178.878 191.046 178.812C191.128 178.741 191.238 178.705 191.375 178.705C191.523 178.705 191.632 178.741 191.704 178.812C191.78 178.878 191.818 178.977 191.818 179.11C191.818 179.232 191.78 179.332 191.704 179.408C191.632 179.479 191.523 179.515 191.375 179.515ZM194.198 184.155C194.091 184.155 194.007 184.124 193.946 184.063C193.885 184.002 193.854 183.913 193.854 183.796V180.677C193.854 180.56 193.885 180.473 193.946 180.417C194.007 180.356 194.091 180.325 194.198 180.325C194.305 180.325 194.387 180.356 194.443 180.417C194.504 180.473 194.534 180.56 194.534 180.677V181.327L194.45 181.189C194.547 180.909 194.703 180.692 194.917 180.539C195.136 180.386 195.396 180.31 195.696 180.31C196.012 180.31 196.267 180.386 196.461 180.539C196.654 180.687 196.784 180.914 196.85 181.22H196.743C196.835 180.939 196.998 180.718 197.233 180.555C197.472 180.392 197.75 180.31 198.066 180.31C198.346 180.31 198.575 180.366 198.754 180.478C198.937 180.585 199.075 180.748 199.167 180.967C199.258 181.181 199.304 181.457 199.304 181.793V183.796C199.304 183.913 199.274 184.002 199.212 184.063C199.151 184.124 199.067 184.155 198.96 184.155C198.848 184.155 198.761 184.124 198.7 184.063C198.639 184.002 198.609 183.913 198.609 183.796V181.824C198.609 181.497 198.552 181.258 198.44 181.105C198.328 180.952 198.14 180.876 197.875 180.876C197.584 180.876 197.352 180.978 197.179 181.181C197.011 181.38 196.927 181.655 196.927 182.007V183.796C196.927 183.913 196.896 184.002 196.835 184.063C196.779 184.124 196.695 184.155 196.583 184.155C196.471 184.155 196.384 184.124 196.323 184.063C196.262 184.002 196.231 183.913 196.231 183.796V181.824C196.231 181.497 196.175 181.258 196.063 181.105C195.951 180.952 195.762 180.876 195.498 180.876C195.207 180.876 194.975 180.978 194.802 181.181C194.634 181.38 194.55 181.655 194.55 182.007V183.796C194.55 184.035 194.432 184.155 194.198 184.155ZM201.76 185.531C201.653 185.531 201.569 185.5 201.508 185.439C201.447 185.378 201.416 185.291 201.416 185.179V180.677C201.416 180.56 201.447 180.473 201.508 180.417C201.569 180.356 201.653 180.325 201.76 180.325C201.872 180.325 201.957 180.356 202.013 180.417C202.074 180.473 202.104 180.56 202.104 180.677V181.373L202.02 181.235C202.102 180.955 202.262 180.73 202.502 180.562C202.741 180.394 203.029 180.31 203.366 180.31C203.697 180.31 203.985 180.389 204.229 180.547C204.474 180.7 204.665 180.922 204.803 181.212C204.94 181.497 205.009 181.839 205.009 182.236C205.009 182.629 204.94 182.973 204.803 183.268C204.67 183.559 204.479 183.783 204.229 183.941C203.985 184.094 203.697 184.17 203.366 184.17C203.034 184.17 202.749 184.086 202.509 183.918C202.27 183.75 202.109 183.528 202.028 183.253H202.112V185.179C202.112 185.291 202.081 185.378 202.02 185.439C201.959 185.5 201.872 185.531 201.76 185.531ZM203.205 183.62C203.424 183.62 203.615 183.566 203.778 183.459C203.946 183.352 204.076 183.197 204.168 182.993C204.26 182.789 204.306 182.537 204.306 182.236C204.306 181.788 204.206 181.446 204.008 181.212C203.809 180.978 203.541 180.86 203.205 180.86C202.981 180.86 202.785 180.914 202.616 181.021C202.453 181.123 202.326 181.276 202.234 181.48C202.148 181.683 202.104 181.936 202.104 182.236C202.104 182.685 202.204 183.029 202.402 183.268C202.601 183.503 202.869 183.62 203.205 183.62ZM208.066 184.17C207.684 184.17 207.393 184.058 207.194 183.834C206.996 183.605 206.896 183.276 206.896 182.848V179.011C206.896 178.893 206.927 178.807 206.988 178.751C207.049 178.69 207.133 178.659 207.24 178.659C207.352 178.659 207.439 178.69 207.5 178.751C207.561 178.807 207.592 178.893 207.592 179.011V182.794C207.592 183.059 207.645 183.258 207.752 183.391C207.865 183.518 208.023 183.582 208.226 183.582C208.272 183.582 208.313 183.582 208.349 183.582C208.384 183.577 208.42 183.571 208.456 183.566C208.512 183.561 208.552 183.577 208.578 183.612C208.603 183.648 208.616 183.719 208.616 183.826C208.616 183.923 208.593 183.999 208.547 184.056C208.507 184.106 208.438 184.14 208.341 184.155C208.295 184.16 208.249 184.163 208.203 184.163C208.158 184.168 208.112 184.17 208.066 184.17ZM211.872 184.17C211.469 184.17 211.123 184.094 210.832 183.941C210.547 183.783 210.325 183.561 210.167 183.276C210.009 182.985 209.93 182.644 209.93 182.252C209.93 181.864 210.007 181.525 210.159 181.235C210.317 180.944 210.531 180.718 210.802 180.555C211.077 180.392 211.39 180.31 211.742 180.31C211.991 180.31 212.216 180.353 212.414 180.44C212.618 180.522 212.791 180.641 212.934 180.799C213.077 180.957 213.184 181.151 213.255 181.38C213.332 181.604 213.37 181.859 213.37 182.145C213.37 182.226 213.344 182.29 213.293 182.336C213.248 182.376 213.179 182.397 213.087 182.397H210.473V181.953H212.911L212.781 182.06C212.781 181.795 212.741 181.571 212.659 181.388C212.583 181.199 212.468 181.057 212.315 180.96C212.167 180.863 211.981 180.815 211.757 180.815C211.512 180.815 211.303 180.873 211.13 180.99C210.957 181.102 210.824 181.263 210.733 181.472C210.641 181.676 210.595 181.913 210.595 182.183V182.229C210.595 182.687 210.705 183.034 210.924 183.268C211.143 183.503 211.459 183.62 211.872 183.62C212.035 183.62 212.2 183.599 212.369 183.559C212.542 183.518 212.707 183.444 212.865 183.337C212.942 183.291 213.011 183.271 213.072 183.276C213.138 183.276 213.192 183.296 213.232 183.337C213.273 183.373 213.299 183.419 213.309 183.475C213.319 183.526 213.311 183.582 213.286 183.643C213.26 183.704 213.212 183.757 213.141 183.803C212.972 183.92 212.771 184.012 212.537 184.078C212.307 184.14 212.086 184.17 211.872 184.17ZM215.565 184.132C215.433 184.132 215.323 184.089 215.236 184.002C215.15 183.915 215.106 183.806 215.106 183.673C215.106 183.541 215.15 183.434 215.236 183.352C215.323 183.271 215.433 183.23 215.565 183.23C215.708 183.23 215.817 183.271 215.894 183.352C215.975 183.434 216.016 183.541 216.016 183.673C216.016 183.806 215.975 183.915 215.894 184.002C215.817 184.089 215.708 184.132 215.565 184.132ZM221.437 184.155C221.324 184.155 221.238 184.124 221.177 184.063C221.116 183.997 221.085 183.905 221.085 183.788V179.026C221.085 178.904 221.116 178.812 221.177 178.751C221.238 178.69 221.324 178.659 221.437 178.659C221.554 178.659 221.643 178.69 221.704 178.751C221.765 178.812 221.796 178.904 221.796 179.026V183.788C221.796 183.905 221.765 183.997 221.704 184.063C221.648 184.124 221.559 184.155 221.437 184.155ZM224.331 184.155C224.224 184.155 224.14 184.124 224.079 184.063C224.018 184.002 223.987 183.913 223.987 183.796V180.677C223.987 180.56 224.018 180.473 224.079 180.417C224.14 180.356 224.224 180.325 224.331 180.325C224.438 180.325 224.52 180.356 224.576 180.417C224.637 180.473 224.668 180.56 224.668 180.677V181.304L224.584 181.189C224.691 180.899 224.864 180.679 225.103 180.532C225.348 180.384 225.626 180.31 225.937 180.31C226.237 180.31 226.484 180.364 226.678 180.471C226.872 180.578 227.017 180.741 227.114 180.96C227.211 181.179 227.259 181.457 227.259 181.793V183.796C227.259 183.913 227.228 184.002 227.167 184.063C227.111 184.124 227.027 184.155 226.915 184.155C226.803 184.155 226.716 184.124 226.655 184.063C226.594 184.002 226.563 183.913 226.563 183.796V181.831C226.563 181.5 226.5 181.258 226.372 181.105C226.245 180.952 226.041 180.876 225.761 180.876C225.435 180.876 225.172 180.978 224.974 181.181C224.78 181.38 224.683 181.65 224.683 181.992V183.796C224.683 184.035 224.566 184.155 224.331 184.155ZM230.732 184.155C230.635 184.155 230.551 184.129 230.48 184.078C230.409 184.027 230.348 183.946 230.297 183.834L228.997 180.807C228.961 180.72 228.949 180.641 228.959 180.57C228.969 180.499 229.002 180.44 229.058 180.394C229.119 180.348 229.201 180.325 229.303 180.325C229.389 180.325 229.458 180.346 229.509 180.386C229.56 180.427 229.609 180.499 229.654 180.601L230.855 183.559H230.641L231.871 180.601C231.912 180.499 231.958 180.427 232.009 180.386C232.065 180.346 232.141 180.325 232.238 180.325C232.325 180.325 232.391 180.348 232.437 180.394C232.488 180.44 232.518 180.499 232.529 180.57C232.539 180.641 232.523 180.718 232.483 180.799L231.176 183.834C231.13 183.946 231.069 184.027 230.992 184.078C230.921 184.129 230.834 184.155 230.732 184.155ZM235.791 184.17C235.424 184.17 235.105 184.091 234.835 183.933C234.565 183.775 234.356 183.551 234.208 183.261C234.061 182.97 233.987 182.629 233.987 182.236C233.987 181.941 234.028 181.676 234.109 181.441C234.196 181.202 234.318 180.998 234.476 180.83C234.634 180.662 234.822 180.534 235.042 180.448C235.266 180.356 235.516 180.31 235.791 180.31C236.158 180.31 236.476 180.389 236.746 180.547C237.016 180.705 237.225 180.929 237.373 181.22C237.521 181.505 237.595 181.844 237.595 182.236C237.595 182.532 237.551 182.799 237.465 183.039C237.383 183.278 237.263 183.482 237.105 183.65C236.947 183.819 236.756 183.949 236.532 184.04C236.313 184.127 236.066 184.17 235.791 184.17ZM235.791 183.62C236.015 183.62 236.209 183.566 236.372 183.459C236.54 183.352 236.667 183.197 236.754 182.993C236.846 182.789 236.891 182.537 236.891 182.236C236.891 181.788 236.792 181.446 236.593 181.212C236.395 180.978 236.127 180.86 235.791 180.86C235.572 180.86 235.378 180.914 235.21 181.021C235.047 181.123 234.919 181.276 234.828 181.48C234.736 181.683 234.69 181.936 234.69 182.236C234.69 182.685 234.789 183.029 234.988 183.268C235.192 183.503 235.459 183.62 235.791 183.62ZM239.823 184.14C239.716 184.14 239.632 184.106 239.571 184.04C239.51 183.974 239.479 183.882 239.479 183.765V180.715C239.479 180.593 239.51 180.501 239.571 180.44C239.632 180.374 239.716 180.341 239.823 180.341C239.935 180.341 240.022 180.374 240.083 180.44C240.144 180.501 240.175 180.593 240.175 180.715V183.765C240.175 183.882 240.144 183.974 240.083 184.04C240.027 184.106 239.941 184.14 239.823 184.14ZM239.823 179.515C239.686 179.515 239.576 179.479 239.495 179.408C239.418 179.332 239.38 179.232 239.38 179.11C239.38 178.977 239.418 178.878 239.495 178.812C239.576 178.741 239.686 178.705 239.823 178.705C239.971 178.705 240.081 178.741 240.152 178.812C240.228 178.878 240.267 178.977 240.267 179.11C240.267 179.232 240.228 179.332 240.152 179.408C240.081 179.479 239.971 179.515 239.823 179.515ZM243.9 184.17C243.523 184.17 243.197 184.091 242.921 183.933C242.646 183.77 242.435 183.543 242.287 183.253C242.139 182.957 242.065 182.611 242.065 182.213C242.065 181.918 242.106 181.653 242.188 181.418C242.274 181.184 242.397 180.985 242.555 180.822C242.712 180.654 242.904 180.527 243.128 180.44C243.357 180.353 243.614 180.31 243.9 180.31C244.078 180.31 244.267 180.338 244.465 180.394C244.664 180.45 244.848 180.542 245.016 180.669C245.072 180.71 245.108 180.758 245.123 180.815C245.138 180.865 245.138 180.919 245.123 180.975C245.113 181.031 245.087 181.08 245.046 181.12C245.011 181.156 244.962 181.176 244.901 181.181C244.845 181.187 244.784 181.169 244.718 181.128C244.595 181.036 244.465 180.97 244.328 180.929C244.195 180.888 244.068 180.868 243.946 180.868C243.757 180.868 243.589 180.899 243.441 180.96C243.299 181.021 243.176 181.11 243.074 181.227C242.977 181.339 242.904 181.48 242.853 181.648C242.802 181.811 242.776 182.002 242.776 182.221C242.776 182.654 242.878 182.996 243.082 183.245C243.286 183.49 243.574 183.612 243.946 183.612C244.068 183.612 244.195 183.594 244.328 183.559C244.46 183.518 244.59 183.452 244.718 183.36C244.784 183.319 244.845 183.304 244.901 183.314C244.957 183.319 245.003 183.342 245.039 183.383C245.08 183.419 245.105 183.464 245.115 183.52C245.125 183.571 245.12 183.625 245.1 183.681C245.085 183.737 245.049 183.783 244.993 183.819C244.83 183.941 244.651 184.03 244.458 184.086C244.264 184.142 244.078 184.17 243.9 184.17ZM247.178 184.14C247.071 184.14 246.987 184.106 246.926 184.04C246.864 183.974 246.834 183.882 246.834 183.765V180.715C246.834 180.593 246.864 180.501 246.926 180.44C246.987 180.374 247.071 180.341 247.178 180.341C247.29 180.341 247.377 180.374 247.438 180.44C247.499 180.501 247.529 180.593 247.529 180.715V183.765C247.529 183.882 247.499 183.974 247.438 184.04C247.382 184.106 247.295 184.14 247.178 184.14ZM247.178 179.515C247.04 179.515 246.931 179.479 246.849 179.408C246.773 179.332 246.734 179.232 246.734 179.11C246.734 178.977 246.773 178.878 246.849 178.812C246.931 178.741 247.04 178.705 247.178 178.705C247.326 178.705 247.435 178.741 247.507 178.812C247.583 178.878 247.621 178.977 247.621 179.11C247.621 179.232 247.583 179.332 247.507 179.408C247.435 179.479 247.326 179.515 247.178 179.515ZM249.985 184.155C249.878 184.155 249.794 184.124 249.733 184.063C249.672 184.002 249.641 183.913 249.641 183.796V180.677C249.641 180.56 249.672 180.473 249.733 180.417C249.794 180.356 249.878 180.325 249.985 180.325C250.092 180.325 250.174 180.356 250.23 180.417C250.291 180.473 250.322 180.56 250.322 180.677V181.304L250.238 181.189C250.345 180.899 250.518 180.679 250.757 180.532C251.002 180.384 251.28 180.31 251.591 180.31C251.891 180.31 252.138 180.364 252.332 180.471C252.526 180.578 252.671 180.741 252.768 180.96C252.865 181.179 252.913 181.457 252.913 181.793V183.796C252.913 183.913 252.882 184.002 252.821 184.063C252.765 184.124 252.681 184.155 252.569 184.155C252.457 184.155 252.37 184.124 252.309 184.063C252.248 184.002 252.217 183.913 252.217 183.796V181.831C252.217 181.5 252.154 181.258 252.026 181.105C251.899 180.952 251.695 180.876 251.415 180.876C251.089 180.876 250.826 180.978 250.628 181.181C250.434 181.38 250.337 181.65 250.337 181.992V183.796C250.337 184.035 250.22 184.155 249.985 184.155ZM256.683 185.546C256.408 185.546 256.141 185.515 255.881 185.454C255.626 185.393 255.394 185.299 255.185 185.172C255.119 185.131 255.073 185.082 255.048 185.026C255.027 184.975 255.022 184.922 255.032 184.866C255.048 184.81 255.073 184.759 255.109 184.713C255.15 184.672 255.195 184.644 255.246 184.629C255.303 184.619 255.359 184.631 255.415 184.667C255.639 184.794 255.853 184.881 256.057 184.927C256.261 184.973 256.454 184.996 256.638 184.996C256.999 184.996 257.27 184.901 257.448 184.713C257.631 184.529 257.723 184.259 257.723 183.903V183.077H257.792C257.721 183.362 257.56 183.589 257.31 183.757C257.066 183.926 256.78 184.01 256.454 184.01C256.118 184.01 255.825 183.933 255.575 183.78C255.325 183.622 255.132 183.406 254.994 183.131C254.857 182.85 254.788 182.527 254.788 182.16C254.788 181.88 254.826 181.627 254.902 181.403C254.984 181.174 255.096 180.98 255.239 180.822C255.387 180.659 255.562 180.534 255.766 180.448C255.97 180.356 256.199 180.31 256.454 180.31C256.785 180.31 257.073 180.394 257.318 180.562C257.563 180.73 257.721 180.957 257.792 181.243L257.708 181.35V180.677C257.708 180.56 257.738 180.473 257.799 180.417C257.861 180.356 257.947 180.325 258.059 180.325C258.166 180.325 258.25 180.356 258.312 180.417C258.373 180.473 258.403 180.56 258.403 180.677V183.811C258.403 184.387 258.256 184.82 257.96 185.11C257.67 185.401 257.244 185.546 256.683 185.546ZM256.607 183.459C256.836 183.459 257.033 183.408 257.196 183.306C257.364 183.199 257.491 183.049 257.578 182.855C257.67 182.657 257.715 182.425 257.715 182.16C257.715 181.757 257.616 181.441 257.417 181.212C257.219 180.978 256.948 180.86 256.607 180.86C256.378 180.86 256.179 180.914 256.011 181.021C255.848 181.123 255.72 181.271 255.629 181.464C255.537 181.658 255.491 181.89 255.491 182.16C255.491 182.557 255.59 182.873 255.789 183.108C255.993 183.342 256.266 183.459 256.607 183.459ZM260.848 184.132C260.716 184.132 260.606 184.089 260.52 184.002C260.433 183.915 260.39 183.806 260.39 183.673C260.39 183.541 260.433 183.434 260.52 183.352C260.606 183.271 260.716 183.23 260.848 183.23C260.991 183.23 261.1 183.271 261.177 183.352C261.258 183.434 261.299 183.541 261.299 183.673C261.299 183.806 261.258 183.915 261.177 184.002C261.1 184.089 260.991 184.132 260.848 184.132Z" fill="white"/>
<defs>
<filter id="filter0_d_3_105" x="32.8685" y="120.008" width="204.828" height="70.7785" filterUnits="userSpaceOnUse" color-interpolation-filters="sRGB">
<feFlood flood-opacity="0" result="BackgroundImageFix"/>
<feColorMatrix in="SourceAlpha" type="matrix" values="0 0 0 0 0 0 0 0 0 0 0 0 0 0 0 0 0 0 127 0" result="hardAlpha"/>
<feOffset dx="7.64384" dy="6.11507"/>
<feGaussianBlur stdDeviation="1.52877"/>
<feComposite in2="hardAlpha" operator="out"/>
<feColorMatrix type="matrix" values="0 0 0 0 0 0 0 0 0 0 0 0 0 0 0 0 0 0 0.25 0"/>
<feBlend mode="normal" in2="BackgroundImageFix" result="effect1_dropShadow_3_105"/>
<feBlend mode="normal" in="SourceGraphic" in2="effect1_dropShadow_3_105" result="shape"/>
</filter>
<clipPath id="clip0_3_105">
<rect width="45.0986" height="45.0986" fill="white" transform="translate(55.4178 120.008) rotate(30)"/>
</clipPath>
</defs>
</svg>
